<svg width="114" height="84" fill="none" xmlns="http://www.w3.org/2000/svg"><path d="M49.908 18.147a22.581 22.581 0 0 1 4.32 13.336c0 12.542-10.203 22.745-22.745 22.745-12.541 0-22.745-10.203-22.745-22.745 0-12.541 10.204-22.745 22.745-22.745a22.58 22.58 0 0 1 13.318 4.307" stroke="#05C2DF" stroke-width="1.007" stroke-linejoin="round"/><path d="M31.484 22.373c5.023 0 9.11 4.087 9.11 9.11s-4.087 9.11-9.11 9.11-9.11-4.087-9.11-9.11c0-5.022 4.087-9.11 9.11-9.11ZM112.265.503c-9.504 0-17.236 7.732-17.236 17.236v8.982a14.767 14.767 0 0 0-6.108 3.59" stroke="#05C2DF" stroke-width="1.007"/><path d="M48.983 57.035a31.187 31.187 0 0 0 10.453-12.198M93.8 53.503a23.655 23.655 0 0 0-5.672-3.837l-.346-.167m-2.76-12.682a14.802 14.802 0 0 0-.585 4.109v6.959l-1.768-.853a56.265 56.265 0 0 0-21.88-5.497 30.852 30.852 0 0 0 1.675-10.05c0-17.083-13.898-30.981-30.98-30.981C14.4.504.504 14.402.504 31.484c0 17.083 13.897 30.98 30.98 30.98a30.79 30.79 0 0 0 14.485-3.601c1.61 1.396 28.217 24.27 42.134 24.27.17 0 .34-.003.506-.01 13.925-.581 24.453-12 24.894-12.486" stroke="#05C2DF" stroke-width="1.007"/></svg>