<svg width="248" height="69" fill="none" xmlns="http://www.w3.org/2000/svg"><path opacity=".45" d="M51 6.055c-4.88-3.412-10.087-4.648-16-5-5.913-.352-11.44 1.003-16.679 3.812a32.697 32.697 0 0 0-12.676 12.18A33.407 33.407 0 0 0 1 34.134a33.404 33.404 0 0 0 4.727 17.066A32.69 32.69 0 0 0 18.46 63.316a32.036 32.036 0 0 0 17.066 3.672C41.44 66.606 47.135 64.49 52 61.055" stroke="#05C2DF" stroke-width="2" stroke-miterlimit="1.517"/><path d="M34.03 60.21c14.588 0 26.413-11.79 26.413-26.335 0-14.544-11.825-26.335-26.412-26.335-14.588 0-26.413 11.79-26.413 26.335 0 14.545 11.825 26.335 26.413 26.335Z" stroke="#05C2DF" stroke-miterlimit="10"/><path opacity=".45" d="M86 11.055H56v2h30v-2ZM86 55.055H56v2h30v-2Z" fill="#05C2DF"/><path d="M45 34.055 27.75 44.447V23.662L45 34.055Z" fill="#fff"/><path opacity=".45" d="M91 11.055h-2v2h2v-2ZM88 11.055h-2v2h2v-2ZM94 11.055h-2v2h2v-2ZM97 11.055h-2v2h2v-2ZM100 11.055h-2v2h2v-2ZM104 11.055h-2v2h2v-2ZM108 11.055h-2v2h2v-2ZM112 11.055h-2v2h2v-2ZM117 11.055h-2v2h2v-2ZM122 11.055h-2v2h2v-2ZM127 11.055h-2v2h2v-2ZM132 11.055h-2v2h2v-2ZM137 11.055h-2v2h2v-2ZM142 11.055h-2v2h2v-2ZM153.6 11.285H152v1.6h1.6v-1.6ZM159.6 11.285H158v1.6h1.6v-1.6ZM165.6 11.285H164v1.6h1.6v-1.6ZM171.3 11.484H170v1.3h1.3v-1.3ZM178.3 11.484H177v1.3h1.3v-1.3ZM185.3 11.484H184v1.3h1.3v-1.3ZM192.3 11.484H191v1.3h1.3v-1.3ZM200.3 11.484H199v1.3h1.3v-1.3ZM209.3 11.484H208v1.3h1.3v-1.3ZM147.6 11.285H146v1.6h1.6v-1.6ZM248 11.555h-1v1h1v-1ZM234 11.555h-1v1h1v-1ZM221 11.555h-1v1h1v-1ZM91 55.055h-2v2h2v-2ZM88 55.055h-2v2h2v-2ZM94 55.055h-2v2h2v-2ZM97 55.055h-2v2h2v-2ZM100 55.055h-2v2h2v-2ZM104 55.055h-2v2h2v-2ZM108 55.055h-2v2h2v-2ZM112 55.055h-2v2h2v-2ZM117 55.055h-2v2h2v-2ZM122 55.055h-2v2h2v-2ZM127 55.055h-2v2h2v-2ZM132 55.055h-2v2h2v-2ZM137 55.055h-2v2h2v-2ZM142 55.055h-2v2h2v-2ZM153.6 55.285H152v1.6h1.6v-1.6ZM159.6 55.285H158v1.6h1.6v-1.6ZM165.6 55.285H164v1.6h1.6v-1.6ZM171.3 55.484H170v1.3h1.3v-1.3ZM178.3 55.484H177v1.3h1.3v-1.3ZM185.3 55.484H184v1.3h1.3v-1.3ZM192.3 55.484H191v1.3h1.3v-1.3ZM200.3 55.484H199v1.3h1.3v-1.3ZM209.3 55.484H208v1.3h1.3v-1.3ZM147.6 55.285H146v1.6h1.6v-1.6ZM248 55.555h-1v1h1v-1ZM234 55.555h-1v1h1v-1ZM221 55.555h-1v1h1v-1Z" fill="#05C2DF"/></svg>