<svg width="237" height="69" fill="none" xmlns="http://www.w3.org/2000/svg"><path opacity=".45" d="M51 6.055c-4.88-3.412-10.087-4.648-16-5-5.913-.352-11.44 1.003-16.679 3.812a32.697 32.697 0 0 0-12.676 12.18A33.407 33.407 0 0 0 1 34.134a33.404 33.404 0 0 0 4.727 17.066A32.69 32.69 0 0 0 18.46 63.316a32.036 32.036 0 0 0 17.066 3.672C41.44 66.606 47.135 64.49 52 61.055" stroke="#05C2DF" stroke-width="2" stroke-miterlimit="1.517"/><path d="M34.03 60.21c14.588 0 26.413-11.79 26.413-26.335 0-14.544-11.825-26.335-26.412-26.335-14.588 0-26.413 11.79-26.413 26.335 0 14.545 11.825 26.335 26.413 26.335Z" stroke="#05C2DF" stroke-miterlimit="10"/><path opacity=".45" d="M86 11.055H56v2h30v-2ZM86 55.055H56v2h30v-2Z" fill="#05C2DF"/><path d="M45 34.055 27.75 44.447V23.662L45 34.055Z" fill="#05C2DF"/><path opacity=".45" d="M82.224 11.055h-1.96v2h1.96v-2ZM79.285 11.055h-1.959v2h1.96v-2ZM85.163 11.055h-1.959v2h1.96v-2ZM88.102 11.055h-1.96v2h1.96v-2ZM91.04 11.055h-1.959v2h1.96v-2ZM94.96 11.055H93v2h1.96v-2ZM98.877 11.055h-1.959v2h1.96v-2ZM102.795 11.055h-1.959v2h1.959v-2ZM107.694 11.055h-1.96v2h1.96v-2ZM112.591 11.055h-1.959v2h1.959v-2ZM117.489 11.055h-1.959v2h1.959v-2ZM122.387 11.055h-1.959v2h1.959v-2ZM127.285 11.055h-1.959v2h1.959v-2ZM132.184 11.055h-1.959v2h1.959v-2ZM143.547 11.285h-1.568v1.6h1.568v-1.6ZM149.424 11.285h-1.568v1.6h1.568v-1.6ZM155.302 11.285h-1.568v1.6h1.568v-1.6ZM160.886 11.485h-1.274v1.3h1.274v-1.3ZM167.742 11.485h-1.273v1.3h1.273v-1.3ZM174.6 11.485h-1.274v1.3h1.274v-1.3ZM181.457 11.485h-1.273v1.3h1.273v-1.3ZM189.293 11.485h-1.273v1.3h1.273v-1.3ZM198.109 11.485h-1.273v1.3h1.273v-1.3ZM137.669 11.285h-1.567v1.6h1.567v-1.6ZM236.02 11.555h-.98v1h.98v-1ZM222.306 11.555h-.98v1h.98v-1ZM209.571 11.555h-.979v1h.979v-1ZM82.224 55.055h-1.96v2h1.96v-2ZM79.285 55.055h-1.959v2h1.96v-2ZM85.163 55.055h-1.959v2h1.96v-2ZM88.102 55.055h-1.96v2h1.96v-2ZM91.04 55.055h-1.959v2h1.96v-2ZM94.96 55.055H93v2h1.96v-2ZM98.877 55.055h-1.959v2h1.96v-2ZM102.795 55.055h-1.959v2h1.959v-2ZM107.694 55.055h-1.96v2h1.96v-2ZM112.591 55.055h-1.959v2h1.959v-2ZM117.489 55.055h-1.959v2h1.959v-2ZM122.387 55.055h-1.959v2h1.959v-2ZM127.285 55.055h-1.959v2h1.959v-2ZM132.184 55.055h-1.959v2h1.959v-2ZM143.547 55.285h-1.568v1.6h1.568v-1.6ZM149.424 55.285h-1.568v1.6h1.568v-1.6ZM155.302 55.285h-1.568v1.6h1.568v-1.6ZM160.886 55.485h-1.274v1.3h1.274v-1.3ZM167.742 55.485h-1.273v1.3h1.273v-1.3ZM174.6 55.485h-1.274v1.3h1.274v-1.3ZM181.457 55.485h-1.273v1.3h1.273v-1.3ZM189.293 55.485h-1.273v1.3h1.273v-1.3ZM198.109 55.485h-1.273v1.3h1.273v-1.3ZM137.669 55.285h-1.567v1.6h1.567v-1.6ZM236.02 55.555h-.98v1h.98v-1ZM222.306 55.555h-.98v1h.98v-1ZM209.571 55.555h-.979v1h.979v-1Z" fill="#05C2DF"/></svg>