<svg width="84" height="84" fill="none" xmlns="http://www.w3.org/2000/svg"><g clip-path="url('#clip0_1_10253')"><path d="M35.669.5c.506 0 .915.41.915.916v4.747h6.636c.505 0 .915.41.915.916v6.635h3.832V7.079c0-.506.41-.916.915-.916H75.31c.505 0 .915.41.915.916v73.59H24.37v-1.86a1.916 1.916 0 0 0-3.832 0v1.86H8.967l-.64-.001V27.843c0-.506.41-.916.915-.916H21.54V14.629c0-.506.41-.915.915-.915h4.747V7.079c0-.506.41-.916.916-.916h6.635V1.416c0-.506.41-.916.916-.916ZM43 77.5V51.073M49 77.427V51M55 77.427V51" stroke="#05C2DF" stroke-linecap="round"/><path d="M56.157 13.464c.644 0 1.166.522 1.166 1.166v1.888a1.165 1.165 0 0 1-2.331 0V14.63l.005-.12a1.166 1.166 0 0 1 1.16-1.046ZM61.82 13.464c.644 0 1.166.522 1.166 1.166v1.888a1.165 1.165 0 0 1-2.331 0V14.63l.006-.12a1.166 1.166 0 0 1 1.16-1.046ZM67.484 13.464c.644 0 1.165.522 1.165 1.166v1.888a1.165 1.165 0 0 1-2.331 0V14.63l.006-.12a1.166 1.166 0 0 1 1.16-1.046ZM56.157 22.901c.644 0 1.166.523 1.166 1.166v1.888a1.165 1.165 0 1 1-2.331 0v-1.888c0-.644.522-1.166 1.166-1.166ZM61.82 22.901c.644 0 1.166.523 1.166 1.166v1.888a1.165 1.165 0 1 1-2.331 0v-1.888c0-.644.522-1.166 1.166-1.166ZM67.484 22.901c.644 0 1.165.523 1.165 1.166v1.888a1.165 1.165 0 1 1-2.331 0v-1.888c0-.644.522-1.166 1.166-1.166ZM56.157 32.34c.644 0 1.166.522 1.166 1.166v1.888a1.165 1.165 0 1 1-2.331 0v-1.888c0-.644.522-1.166 1.166-1.166ZM61.82 32.34c.644 0 1.166.522 1.166 1.166v1.888a1.165 1.165 0 1 1-2.331 0v-1.888c0-.644.522-1.166 1.166-1.166ZM67.484 32.34c.644 0 1.165.522 1.165 1.166v1.888a1.165 1.165 0 1 1-2.331 0v-1.888c0-.644.522-1.166 1.166-1.166ZM16.517 36.115c.644 0 1.165.522 1.165 1.166v1.888a1.165 1.165 0 1 1-2.33 0V37.28c0-.644.521-1.166 1.165-1.166ZM22.18 36.115c.644 0 1.165.522 1.165 1.166v1.888a1.165 1.165 0 1 1-2.33 0V37.28c0-.644.522-1.166 1.165-1.166ZM27.843 36.115c.644 0 1.165.522 1.165 1.166v1.888a1.165 1.165 0 1 1-2.331 0V37.28c0-.644.522-1.166 1.166-1.166ZM16.517 45.554c.644 0 1.165.522 1.165 1.166v1.887a1.165 1.165 0 1 1-2.33 0V46.72c0-.644.521-1.166 1.165-1.166ZM22.18 45.554c.644 0 1.165.522 1.165 1.166v1.887a1.165 1.165 0 1 1-2.33 0V46.72c0-.644.522-1.166 1.165-1.166ZM27.843 45.554c.644 0 1.165.522 1.165 1.166v1.887a1.165 1.165 0 1 1-2.331 0V46.72c0-.644.522-1.166 1.166-1.166ZM16.517 54.991c.644 0 1.165.522 1.165 1.166v1.888a1.165 1.165 0 1 1-2.33 0v-1.888c0-.644.521-1.166 1.165-1.166ZM22.18 54.991c.644 0 1.165.522 1.165 1.166v1.888a1.165 1.165 0 1 1-2.33 0v-1.888c0-.644.522-1.166 1.165-1.166ZM27.843 54.991c.644 0 1.165.522 1.165 1.166v1.888a1.165 1.165 0 1 1-2.331 0v-1.888c0-.644.522-1.166 1.166-1.166ZM16.517 64.43c.644 0 1.165.522 1.165 1.166v1.887a1.165 1.165 0 1 1-2.33 0v-1.887c0-.644.521-1.166 1.165-1.166ZM22.18 64.43c.644 0 1.165.522 1.165 1.166v1.887a1.165 1.165 0 1 1-2.33 0v-1.887c0-.644.522-1.166 1.165-1.166ZM27.843 64.43c.644 0 1.165.522 1.165 1.166v1.887a1.165 1.165 0 1 1-2.331 0v-1.887c0-.644.522-1.166 1.166-1.166ZM67.484 41.778c.644 0 1.165.523 1.165 1.166v1.888a1.165 1.165 0 1 1-2.331 0v-1.888c0-.644.522-1.166 1.166-1.166ZM67.484 51.217c.644 0 1.165.522 1.165 1.166v1.887a1.165 1.165 0 1 1-2.331 0v-1.887c0-.644.522-1.166 1.166-1.166ZM67.484 60.654c.644 0 1.165.522 1.165 1.166v1.888a1.165 1.165 0 1 1-2.331 0V61.82c0-.644.522-1.166 1.166-1.166ZM67.484 70.093c.644 0 1.165.522 1.165 1.166v1.888a1.165 1.165 0 1 1-2.331 0v-1.888c0-.644.522-1.166 1.166-1.166Z" fill="#05C2DF" stroke="#05040B" stroke-width=".5" stroke-linecap="round"/><path d="M41.326 20H30" stroke="#05C2DF" stroke-linecap="round"/><path fill-rule="evenodd" clip-rule="evenodd" d="M56 42a1 1 0 0 0-1 1v1h2v-1a1 1 0 0 0-1-1ZM62 42a1 1 0 0 0-1 1v1h2v-1a1 1 0 0 0-1-1Z" fill="#05C2DF"/></g><defs><clipPath id="clip0_1_10253"><path fill="#fff" d="M0 0h84v84H0z"/></clipPath></defs></svg>