<svg width="113" height="81" fill="none" xmlns="http://www.w3.org/2000/svg"><circle cx="56.154" cy="40.84" r="13.59" stroke="#05C2DF"/><path d="M70.597 26.434c4.67 3.089 7.749 8.387 7.749 14.405 0 6.018-3.08 11.317-7.75 14.406M70.773 55.105l6.34 8.102" stroke="#05C2DF"/><path d="M76.937 63.383c7.429-4.872 12.329-13.229 12.329-22.72s-4.9-17.848-12.329-22.72l-6.34 8.63" stroke="#05C2DF"/><path d="M83.982 9.49c9.976 6.61 16.556 17.946 16.556 30.822 0 12.876-6.58 24.212-16.556 30.821" stroke="#05C2DF"/><path d="m83.982 9.666 6.34-8.982c12.948 8.535 21.487 23.175 21.487 39.803 0 16.628-8.539 31.269-21.487 39.804l-6.516-9.158M41.712 26.434c-4.67 3.089-7.75 8.387-7.75 14.405 0 6.018 3.08 11.317 7.75 14.406M41.536 55.105l-6.34 8.102" stroke="#05C2DF"/><path d="M35.371 63.383c-7.428-4.872-12.328-13.229-12.328-22.72s4.9-17.848 12.328-22.72l6.34 8.63" stroke="#05C2DF"/><path d="M28.327 9.49c-9.976 6.61-16.555 17.946-16.555 30.822 0 12.876 6.58 24.212 16.555 30.821" stroke="#05C2DF"/><path d="M28.327 9.666 21.987.684C9.04 9.219.5 23.859.5 40.487c0 16.628 8.54 31.269 21.487 39.804l6.517-9.158" stroke="#05C2DF"/></svg>